<?xml version="1.0" standalone="no"?>
<!DOCTYPE svg PUBLIC "-//W3C//DTD SVG 20010904//EN"
 "http://www.w3.org/TR/2001/REC-SVG-20010904/DTD/svg10.dtd">
<svg version="1.0" xmlns="http://www.w3.org/2000/svg"
 width="500.000000pt" height="500.000000pt" viewBox="0 0 500.000000 500.000000"
 preserveAspectRatio="xMidYMid meet">
<metadata>
Created by potrace 1.11, written by Peter Selinger 2001-2013
</metadata>
<g transform="translate(0.000000,500.000000) scale(0.100000,-0.100000)"
fill="#000000" stroke="none">
<path d="M1482 4955 c-223 -49 -412 -242 -472 -482 -11 -43 -31 -195 -45 -338
-48 -496 -101 -854 -171 -1165 -86 -382 -118 -456 -389 -885 -268 -422 -351
-609 -390 -871 -16 -110 -20 -290 -7 -298 5 -3 86 147 180 332 94 185 210 407
257 492 77 138 253 430 260 430 1 0 -13 -44 -31 -97 -45 -135 -58 -238 -51
-402 6 -156 20 -240 83 -506 96 -404 122 -576 109 -738 l-7 -93 -54 -28 c-67
-35 -104 -77 -104 -117 l0 -30 305 3 c285 3 305 2 305 -14 0 -16 14 -18 151
-18 129 0 150 -2 146 -15 -10 -24 11 -28 30 -5 14 15 30 20 73 20 118 1 166
25 217 110 119 197 212 646 233 1130 11 266 26 425 44 496 15 58 17 58 123 8
99 -47 238 -142 295 -201 l46 -48 -78 -171 c-151 -332 -203 -486 -216 -643 -6
-76 -6 -80 19 -105 51 -50 74 -34 141 95 41 80 78 184 181 514 59 189 64 198
89 180 17 -13 18 -18 3 -102 -9 -48 -26 -155 -37 -238 -59 -420 -99 -586 -179
-740 -43 -83 -137 -186 -204 -225 l-50 -28 69 -9 c38 -4 139 -8 224 -8 192 0
202 4 365 144 64 55 121 101 125 101 4 0 9 -28 12 -62 5 -83 38 -149 96 -193
83 -64 205 -88 505 -99 134 -5 137 -5 137 16 0 19 4 20 53 14 159 -21 157 -21
157 4 0 16 4 20 15 16 8 -3 44 -8 80 -12 55 -6 66 -4 71 10 5 12 20 16 68 16
34 0 67 5 74 12 9 9 18 9 37 0 34 -16 32 0 -5 37 -46 45 -122 68 -302 90 -216
27 -237 34 -267 95 -18 35 -26 71 -29 127 -9 162 34 249 256 514 46 55 102
126 124 158 45 66 98 174 98 199 0 38 20 24 59 -41 145 -244 316 -398 465
-416 112 -14 226 34 226 96 0 46 -45 113 -139 207 -144 144 -169 196 -271 553
-68 240 -113 358 -163 427 -33 46 -34 51 -40 171 -23 418 -143 757 -347 974
l-63 67 -13 93 c-50 337 -211 602 -429 706 -115 55 -227 64 -360 30 -122 -32
-132 -32 -261 -10 -193 33 -281 26 -340 -30 l-22 -21 -12 39 c-19 60 -51 94
-151 165 -123 87 -141 108 -182 204 -45 109 -94 180 -177 257 -146 139 -350
195 -548 152z m520 -790 c37 -7 120 -36 185 -63 158 -67 222 -84 291 -81 45 3
64 -1 92 -18 20 -12 81 -36 135 -54 139 -44 190 -72 220 -118 13 -22 56 -65
95 -96 127 -101 198 -217 247 -402 23 -86 26 -118 26 -258 0 -141 -3 -172 -26
-259 -38 -142 -95 -252 -260 -497 -134 -199 -198 -307 -227 -384 l-11 -30 -22
30 c-20 28 -111 141 -300 374 -196 241 -297 431 -366 689 -44 164 -98 315
-196 542 -34 80 -65 165 -69 190 -4 25 -18 81 -32 125 -26 82 -42 231 -30 278
5 20 15 28 49 35 62 14 124 13 199 -3z m-761 -3659 c82 -85 146 -142 174 -156
39 -19 83 -65 73 -76 -3 -2 -42 -11 -88 -20 -87 -16 -128 -32 -149 -58 -14
-17 -36 -12 -25 5 8 13 -15 39 -43 50 -18 7 -23 16 -23 42 0 21 -19 71 -50
132 -58 113 -66 172 -28 199 12 9 24 16 26 16 2 0 62 -60 133 -134z m2206 2
c5 -7 17 -56 27 -108 9 -52 21 -117 27 -143 6 -27 9 -51 6 -53 -3 -3 -32 2
-64 11 -32 10 -64 19 -70 21 -7 2 -13 12 -13 23 0 11 -12 46 -26 78 -14 32
-28 79 -31 105 l-6 47 39 10 c94 24 99 24 111 9z"/>
</g>
</svg>
